<svg xmlns="http://www.w3.org/2000/svg" viewBox="0 0 302.32 648.67"><g id="Layer_2" data-name="Layer 2"><g id="Layer_1-2" data-name="Layer 1"><path d="M94.75,225.82H39.65a3.34,3.34,0,0,1,1.18-2c39.3-19,71.12-46.72,96.3-82.25,18.11-25.54,32-53.38,44.43-82C189.76,40.76,207.37,0,207.61,0c8.83,1.77,16.83,1.77,16.83,10.71V167h77.88v59.44H223.85c0,2.89-.35,212,.23,314.3.16,29.14-12.05,50.38-35.12,66.52C170.76,620,150.4,628.12,129.5,635.1c-24.13,8.06-48.79,13.36-74.37,13.57a184.56,184.56,0,0,1-52.29-7.28A27.52,27.52,0,0,1,0,640.1c7-1.47,13-2.52,18.78-4C31.3,633,44,630.18,56.22,626.18c23.6-7.71,36.1-24.7,37.76-49.24,1-14.28,1-28.64,1-43q.14-108.09,0-216.19c0-29.08-.16-58.15-.25-87.23C94.74,229.19,94.75,227.82,94.75,225.82Z"/></g></g></svg>